<?xml version="1.0" encoding="utf-8"?>
<!-- Generator: Adobe Illustrator 22.0.0, SVG Export Plug-In . SVG Version: 6.00 Build 0)  -->
<svg version="1.1" id="组_1" xmlns="http://www.w3.org/2000/svg" xmlns:xlink="http://www.w3.org/1999/xlink" x="0px" y="0px"
	 viewBox="0 0 865.6 865.6" style="enable-background:new 0 0 865.6 865.6;" xml:space="preserve">
<style type="text/css">
	.st0{fill:#686868;}
	.st1{fill:#C7C7C7;}
	.st2{fill:#FFFFFF;}
	.st3{fill:#FFA400;}
</style>
<path id="椭圆_6" class="st0" d="M432.8,0c239,0,432.8,193.8,432.8,432.8S671.8,865.6,432.8,865.6S0,671.8,0,432.8
	S193.8,0,432.8,0z"/>
<path id="椭圆_6_拷贝_2" class="st1" d="M432.8,68.1c201.4,0,364.7,163.3,364.7,364.7S634.2,797.5,432.8,797.5
	S68.1,634.3,68.1,432.8S231.4,68.1,432.8,68.1z"/>
<path id="椭圆_6_拷贝" class="st2" d="M432.8,126.4c169.2,0,306.4,137.2,306.4,306.4S602,739.2,432.8,739.2
	S126.4,602,126.4,432.8S263.6,126.4,432.8,126.4z"/>
<g>
	<path class="st3" d="M227.3,354.3c-14.5-6.6-19-20.4-12-34.3c3.3-6.5,6.4-9.5,10-12.2l7.5,4l-2,3.7c-2.7,1-5.7,3.3-8.1,7.9
		c-4.1,8.2-0.9,15.4,9.1,20.1c11,5.2,17.8,3.7,21.7-3.9c2.6-5.3,2.1-9.1,1-12.9c0.5-1,1.1-2,1.6-3.1l7.4,4
		c0.8,4.7,0.1,10.1-2.9,16.2C254.3,356.3,241.8,360.9,227.3,354.3"/>
	<path class="st3" d="M251.1,307.7c-12.6-10.4-12.4-25-3.7-35.2c8.7-10.1,23.2-12.5,35.3-1.4c12.2,11.1,11.5,25.5,3.3,34.9
		C277.8,315.5,263.7,318.2,251.1,307.7 M275.2,279.8c-9.2-8.1-17-7.8-21.9-2.1c-4.9,5.7-4.1,13.5,5.3,21.4
		c9.4,7.8,16.8,7.4,21.6,1.9C284.9,295.4,284.3,287.9,275.2,279.8"/>
	<path class="st3" d="M279,243.5c3.5-2.7,7.1-5.3,10.7-7.6c10.9,5,22.3,10.2,33.3,15.4l0.1,0c-0.4-1.3-15.4-23.9-17-26.4
		c2.7-1.9,5.4-3.6,8.2-5.2l26,41.3c-2.7,1.6-5.6,3.3-8.3,5.2c-12.1-6.1-25.1-12-37.4-17.7l-0.2,0.1l20.6,29c-2.4,1.6-5,3.5-7.2,5.4
		L279,243.5L279,243.5z"/>
	<path class="st3" d="M368.1,248.8c-3.2,1.1-6.3,2.3-9.4,3.6l-15.5-38.3c-4.3,1.8-8.7,3.6-12.9,5.7l-3.3-7
		c12.4-5.9,25.1-10.7,38.3-14.6l2.2,7.5c-4.5,1.3-9,2.9-13.5,4.4L368.1,248.8L368.1,248.8z"/>
	<path class="st3" d="M389.2,242.7l-9.9-47.9c3.7-0.9,7.5-1.6,11.3-2.3l9.2,48L389.2,242.7L389.2,242.7z"/>
	<path class="st3" d="M413,189.5c4.4-0.2,8.8-0.3,13.1-0.1c6.1,10.3,12.4,21.1,18.4,31.7h0.1c0.4-1.3,1.1-28.4,1.2-31.4
		c3.3,0,6.5,0.1,9.7,0.4l-2.4,48.8c-3.1-0.3-6.5-0.5-9.7-0.5c-6.4-11.9-13.7-24.2-20.5-35.9l-0.2,0l0.2,35.6c-2.9-0.1-6.1,0-9,0.3
		L413,189.5L413,189.5z"/>
	<path class="st3" d="M478.5,192.7c11.3,2.4,22.3,5.2,33.4,8.6l-2.2,7.5c-7.3-2.2-14.6-4.2-22-5.9l-3,12.1c5.2,1.3,10.3,2.6,15.4,4
		l-2,7.2c-5-1.4-10.1-2.7-15.2-4l-3.2,13c7.2,1.7,14.3,3.7,21.4,5.7l-2.1,7.4c-10.4-3-20.9-5.7-31.4-8.1L478.5,192.7L478.5,192.7z"
		/>
	<path class="st3" d="M530.7,209.1c4,1.8,7.9,3.8,11.7,6c0.6,12,1.2,24.5,1.7,36.6l0.1,0c1-1,14.1-24.6,15.6-27.2
		c2.9,1.5,5.7,3.1,8.4,4.9l-24.7,42.1c-2.6-1.7-5.5-3.5-8.4-5c-0.2-13.6-0.9-27.8-1.6-41.4l-0.2-0.1L517,256.7
		c-2.6-1.4-5.4-2.8-8.1-3.9L530.7,209.1L530.7,209.1z"/>
	<path class="st3" d="M566.3,290.1c-2.4-2.3-4.9-4.5-7.5-6.6l26.7-31.4c-3.6-3-7.2-6-11-8.8l4.7-6.2c10.9,8.3,21.1,17.3,30.7,27.1
		l-5.6,5.4c-3.2-3.4-6.7-6.7-10.2-9.9L566.3,290.1L566.3,290.1z"/>
	<path class="st3" d="M577.2,295.4c15.2-5.6,30.7-10.8,46.3-15.8c2.5,3,4.9,6.1,7.3,9.4c-8.8,13.9-17.8,27.5-27.2,40.7l-2.3,1.7
		l-6.1-8.3c2.5-3.5,4.8-6.9,7.3-10.5c-3.3-4.4-6.8-8.9-10.2-13.3l-11.9,4.5l-5.3-6.6L577.2,295.4L577.2,295.4z M599.5,296.6
		c2.4,3.1,5,6.4,7.4,9.6c3.5-5.1,7.4-10.9,11-16.1l-0.1-0.1C611.9,292,605.4,294.3,599.5,296.6"/>
	<path class="st3" d="M618,365.9c-4.2-9.4-8.5-18.8-13.1-28l43.9-21.6c1.8,3.4,3.4,6.8,5,10.3l-37.3,17.8c3,6.1,5.8,12.2,8.5,18.4
		L618,365.9L618,365.9z"/>
	<path class="st3" d="M247.9,588.8l6.2-5.6c0.9,1,1.7,1.9,2.5,2.8c-0.2,3.2,1,7.6,5.2,12c4.4,4.5,8.1,5.1,10.8,2.4
		c3.7-3.7,0.5-7.7-2.3-13c-4.5-8.6-4.5-14.2,1.6-19.7c7-6.3,15.2-4.3,21.9,2.5c3.9,4,6.2,8.2,7,11.6l-5.5,5.6l-2.4-2.3
		c-0.5-3.1-1.6-6.2-4.5-9.1c-3.7-3.8-6.8-4.7-9.7-1.9c-2.9,2.7-1.5,5.9,1.5,11.1c5.6,9.6,6.7,15.2,0.5,21.7
		c-6.6,6.9-15.3,6.2-24.3-3.2C251.1,598.2,249.1,593.6,247.9,588.8"/>
	<path class="st3" d="M283.3,627.8l29.3-39.1l8.6,6.3l-28.8,39.5C289.2,632.4,286.2,630.2,283.3,627.8"/>
	<path class="st3" d="M331.5,602.1c3.5,2,7.2,3.9,10.8,5.6c0.9,12.1,2,24.1,3.3,36.2l0.2,0.1l13-28.6c2.7,1.3,5.6,2.5,8.3,3.6
		l-19.6,44.8c-3.1-1.2-6.5-2.7-9.6-4.2c-1.6-13.9-2.9-27.9-4-41.5l-0.2-0.1l-16,31.9c-2.8-1.2-5.8-2.6-8.5-4.3L331.5,602.1
		L331.5,602.1z"/>
	<path class="st3" d="M369.1,645.9c3.6-14,13.6-21.3,24.8-20.6c5.8,0.4,12.8,2.8,16,5.9l-1.1,8.2l-3.7-0.6c-1.7-2.2-4.4-4.3-8.9-5.1
		c-7.9-1.4-13.6,3.4-16,14.3c-2.6,11.7,0.6,18.3,9.3,19.9c6,1,9.7-0.6,12.9-2.9l3.5,0.4l-1.1,8.1c-4.3,2.3-10,3.4-17.3,2.2
		C372.4,673,365.2,661.3,369.1,645.9"/>
	<path class="st3" d="M420.8,630.1c10.5,0.2,21.2,0,31.7-0.5l0.4,7.9c-7.1,0.3-14.3,0.5-21.4,0.5l0.1,12.4c5.2,0.1,10.5,0,15.7-0.3
		l0.3,7.5c-5.3,0.3-10.7,0.5-15.9,0.3l0,13.4c7.9,0.1,15.8-0.1,23.6-0.7l0.4,7.7c-11.8,0.8-23.6,1-35.4,0.6L420.8,630.1L420.8,630.1
		z"/>
	<path class="st3" d="M498.2,669.8L488,634.6l-4.6,4.5l-2.6,0.8l-1.9-6.8c3.1-3.4,6.3-6.7,9.4-10.1l6.8-2l13.7,45.8
		C505.1,667.7,501.7,668.7,498.2,669.8"/>
	<path class="st3" d="M517.7,649.7c-2.6-5.5-1-10.6,3.6-14.9l-0.1-0.2c-5.1,0.7-8.9-1-11.2-5.6c-3.4-7.1,0.6-14.4,9.8-18.9
		c9.1-4.5,17.4-3.4,21,3.8c2.3,4.6,1.3,8.6-2.3,12.3l0.1,0.2c6.2-1,11.3,0.8,14,6.3c4,7.9,0.1,15.8-11.1,21.3
		C530.1,659.5,521.5,657.7,517.7,649.7 M531.7,618.8c-1.8-3.5-5.1-4.3-8.8-2.5c-3.8,1.9-5.2,5-3.4,8.5c1.8,3.6,5,4.3,8.8,2.4
		C532,625.4,533.4,622.3,531.7,618.8 M542.6,636.7c-1.9-3.9-6.1-5.8-11.3-3.2c-5.3,2.6-6.3,7-4.4,10.9c1.9,3.9,6,5.7,11.3,3.1
		C543.4,644.9,544.6,640.6,542.6,636.7"/>
	<path class="st3" d="M570.5,631.4c-1.4-13.4-5.1-27.1-7.3-37.9l-0.2-0.2c-5.6,5.1-11.7,9.4-17.9,13.3l-4.7-7.2
		c8.1-5.1,17-12,24-18.5l6.1,6.7c4.2,13.2,8.4,26.6,11.7,40.5l-9.4,6.9L570.5,631.4L570.5,631.4z"/>
	<path class="st3" d="M611.1,601.7l-27-24.7l-1.6,6.2l-1.8,2l-5.2-4.9c0.9-4.5,1.9-9,2.7-13.5l4.8-5.2l35.5,32
		C616,596.3,613.5,599,611.1,601.7"/>
	<path class="st3" d="M433.1,174.7c142.3,0,258.1,115.8,258.1,258.1c0,142.3-115.8,258.1-258.1,258.1
		C290.8,690.9,175,575.1,175,432.8C175,290.5,290.8,174.7,433.1,174.7 M433.1,168.5c-146,0-264.3,118.3-264.3,264.3
		c0,146,118.3,264.3,264.3,264.3c146,0,264.3-118.3,264.3-264.3C697.4,286.8,579.1,168.5,433.1,168.5"/>
	<path class="st3" d="M433.2,255.7c97.8,0,177.1,79.3,177.1,177.1c0,97.8-79.3,177.1-177.1,177.1c-97.8,0-177.1-79.3-177.1-177.1
		C256,335,335.3,255.7,433.2,255.7 M433.2,249.8c-100.9,0-183,82.1-183,183c0,100.9,82.1,183,183,183c100.9,0,183-82.1,183-183
		C616.2,331.9,534.1,249.8,433.2,249.8"/>
	<path class="st3" d="M432,277.3c4,0,12.2,9.4,14.8,11.9c1.7,2,11.9,15.6,13.1,19.3c2.8,12.2-1.7,43.8-8,55.7
		c9.7,14.5,19.6,26.7,31.6,39.8c8.5,7.1,35.5,13.4,35.5,38.1c0,13.7-8.5,25-12.5,29.6l8,26.7c0.8,2.5,0.8,3.4-0.6,5.1l-27.9,31
		l-2.5,13.4h-23.3c-0.6-7.7,6.3-15.9,13.4-20.5l20.2-25.3l-34.1-35c-2-5.4-4.6-15.6-5.7-21.9c-11.7-6.8-35.8-23-40.7-29
		c-7.4-8.5-15.1-22.7-15.1-22.7L370.3,374l-10.5,7.7c0,0-0.3,16.8-0.3,17.3c0.6,2.9,3.1,9.1,4.6,11.4l-10.8,15.6
		c0,0-6.5-6.8-6.5-21.3c0-3.4,0.3-6.5,0.3-6.5l0.6-20.2c0-2,0.6-2.8,1.4-3.7l16.5-17.9c0.8-1.1,2.3-1.4,3.7-1.1l22.5,7.1l17.9-12.8
		l15.6-23.6c-4.3-0.6-20.2,3.4-25.3,4.3c-2.6-0.9-4.8-2.3-6.8-4c-0.3-2-0.6-7.7-0.6-11.4c13.1-9.7,27.6-19.3,38.7-26.4l-1.1-10.5
		C430.3,277.6,431.2,277.3,432,277.3 M340.2,371.5l4.3-2l15.4-15.6c0,0-0.6-0.9-2-0.6c-0.9,0.3-21.6,6-21.6,6s-9.7,3.7-13.9,6.5
		c-4.3,2.8-9.1,7.7-9.4,10.2l18.5,4.3C334.2,377.1,337.3,373.7,340.2,371.5 M471.3,488l-26.1,25c-5.4,2.6-16.2,12.2-17.4,19.9h20.8
		c1.4-2.8,3.1-7.4,5.4-10.2l28.1-23.9L471.3,488L471.3,488z M534,556.9H332.3c4,3.2,7.6,6.3,12.4,9.1h177
		C526.6,563.1,530.6,560,534,556.9 M541.2,439.4c0,0-14.5-9.9-16.8-11.4c-2.3-1.4-3.4-0.3-3.4-0.3c2,3.7,4.5,11.1,6.3,17.6l3.4,50.6
		c6.3,6,15.9,11.4,22.7,14.5C553.2,494.6,548.6,450.2,541.2,439.4"/>
</g>
</svg>
